<svg width="55" height="26" viewBox="0 0 55 26" fill="none" xmlns="http://www.w3.org/2000/svg">
<path d="M11.1289 1.52344L8.33594 7.23828L2.01953 8.14062C0.902344 8.3125 0.472656 9.6875 1.28906 10.5039L5.80078 14.9297L4.72656 21.1602C4.55469 22.2773 5.75781 23.1367 6.74609 22.6211L12.375 19.6562L17.9609 22.6211C18.9492 23.1367 20.1523 22.2773 19.9805 21.1602L18.9062 14.9297L23.418 10.5039C24.2344 9.6875 23.8047 8.3125 22.6875 8.14062L16.4141 7.23828L13.5781 1.52344C13.1055 0.535156 11.6445 0.492188 11.1289 1.52344Z" fill="#FFB30E"/>
<path d="M35.288 14.676L38.566 9.902C38.962 9.198 39.358 8.582 39.71 7.922H39.798C39.754 8.67 39.688 9.88 39.688 10.606V14.676H35.288ZM39.688 20H41.404V16.128H43.318V14.676H41.404V5.964H39.38L33.374 14.918V16.128H39.688V20ZM49.6775 12.784C51.4155 12.784 52.2735 13.928 52.2735 15.754C52.2735 17.602 51.2175 18.834 49.8315 18.834C48.0715 18.834 46.9935 17.382 46.7515 14.654C47.6315 13.334 48.7755 12.784 49.6775 12.784ZM49.8315 20.264C52.0975 20.264 53.9895 18.438 53.9895 15.754C53.9895 12.872 52.4275 11.42 49.9855 11.42C48.8415 11.42 47.5875 12.124 46.7075 13.224C46.7735 8.758 48.4455 7.218 50.4035 7.218C51.2835 7.218 52.1635 7.658 52.7135 8.34L53.7255 7.196C52.9555 6.338 51.8555 5.7 50.3375 5.7C47.5435 5.7 44.9915 7.878 44.9915 13.51C44.9915 18.02 47.0815 20.264 49.8315 20.264Z" fill="#FFB30E"/>
</svg>
